<svg enable-background="new 0 0 231.8 231.8" version="1.1" viewBox="0 0 231.8 231.8" xml:space="preserve" xmlns="http://www.w3.org/2000/svg">
<style type="text/css">
	.st0{opacity:0.5;}
	.st1{fill:url(#a);}
	.st2{fill:#F5F5F5;}
	.st3{fill:#333333;}
	.st4{fill:#4E73DF;}
	.st5{opacity:0.1;enable-background:new    ;}
	.st6{fill:#BE7C5E;}
</style>
<g class="st0">
	
		<linearGradient id="a" x1="115.89" x2="115.89" y1="525.2" y2="756.98" gradientTransform="matrix(1 0 0 -1 0 756.98)" gradientUnits="userSpaceOnUse">
		<stop stop-color="#808080" stop-opacity=".25" offset="0"/>
		<stop stop-color="#808080" stop-opacity=".12" offset=".54"/>
		<stop stop-color="#808080" stop-opacity=".1" offset="1"/>
	</linearGradient>
	<circle class="st1" cx="115.9" cy="115.9" r="115.9"/>
</g>
<circle class="st2" cx="115.9" cy="115.3" r="113.4"/>
<path class="st3" d="m71.6 116.3s-12.9 63.4-19.9 59.8c0 0 67.7 58.5 127.5 0 0 0-10.5-44.6-25.7-59.8h-81.9z"/>
<path class="st4" d="m116.2 229c22.2 0 43.9-6.5 62.4-18.7-4.2-22.8-20.1-24.1-20.1-24.1h-87.7s-15 1.2-19.7 22.2c19 13.5 41.8 20.7 65.1 20.6z"/>
<circle class="st3" cx="115" cy="112.8" r="50.3"/>
<path class="st5" d="m97.3 158.4h35.1v28.1c0 9.7-7.8 17.5-17.5 17.5s-17.5-7.9-17.5-17.5l-0.1-28.1z"/>
<path class="st6" d="m100.7 157.1h28.4c1.9 0 3.4 1.5 3.4 3.3v24.7c0 9.7-7.8 17.5-17.5 17.5s-17.5-7.9-17.5-17.5v-24.7c-0.1-1.8 1.4-3.3 3.2-3.3z"/>
<path class="st5" d="m97.4 171.6c11.3 4.2 23.8 4.3 35.1 0.1v-4.3h-35.1v4.2z"/>
<circle class="st6" cx="115" cy="123.7" r="50.3"/>
<path class="st3" d="m66.9 104.6h95.9s-8.2-38.7-44.4-36.2-51.5 36.2-51.5 36.2z"/>
<ellipse class="st6" cx="65.8" cy="121.5" rx="4.7" ry="8.8"/>
<ellipse class="st6" cx="164" cy="121.5" rx="4.7" ry="8.8"/>
<path class="st5" d="m66.9 105.9h95.9s-8.2-38.7-44.4-36.2-51.5 36.2-51.5 36.2z"/>
</svg>
