<svg enable-background="new 0 0 650.9 610.5" version="1.1" viewBox="0 0 650.9 610.5" xml:space="preserve" xmlns="http://www.w3.org/2000/svg">
<style type="text/css">
	.st0{fill:#AFC0E0;}
	.st1{opacity:0.2;fill:#FFFFFF;enable-background:new    ;}
	.st2{opacity:0.1;enable-background:new    ;}
	.st3{fill:#E3E8F4;}
	.st4{fill:#4E73DF;}
</style>
<path class="st0" d="m174 321c-2-1.6-4.2-3-6.6-4.2-51.8-26.2-157 67.8-157 67.8l-10.4-11.9s42.1-43.8 92.4-117.3c45.2-66.1 150.7-51.8 171.4-48.3 2.3 0.4 3.6 0.7 3.6 0.7 31.3 80.5-93.4 113.2-93.4 113.2z"/>
<path class="st1" d="m269.4 213.9c-0.6-2-1.3-4-2-6 0 0-1.2-0.2-3.6-0.7-20.7-3.5-126.2-17.8-171.4 48.3-50.3 73.5-92.4 117.2-92.4 117.2l5.9 6.7s42.1-43.8 92.4-117.3c45-65.8 149.7-51.9 171.1-48.2z"/>
<path class="st0" d="m337.7 533.4c-79.2 40.8-127.8 77.1-127.8 77.1l-10.5-11.9s111.1-96.8 85.3-150.9c-0.5-1.2-1.2-2.3-1.9-3.4 0 0 47.9-119.6 123.9-78.5 0 0 0.1 1 0.2 2.9 0.9 19.1 2.8 127.6-69.2 164.7z"/>
<path class="st2" d="M174,321c-2-1.6-4.2-3-6.6-4.2c29.3-38.9,61.5-75.5,96.3-109.7c2.3,0.4,3.6,0.7,3.6,0.7  C298.7,288.3,174,321,174,321z"/>
<path class="st2" d="m406.9 368.6c-38.6 29.6-79.4 56.1-122.3 79.1-0.5-1.2-1.2-2.3-1.9-3.4 0 0 47.9-119.6 123.9-78.5 0.1-0.1 0.2 0.9 0.3 2.8z"/>
<path class="st3" d="m263.6 455.5c-20.3 10.4-41.6 20.5-64 30.2-33.6 14.6-51.5-2.2-80.7-91.5 0 0 12.5-22.5 37.2-57 54.3-75.8 167.5-209.1 336.1-286.7 50.5-23.4 103.9-40.4 158.7-50.5 0 0-9.1 68.8-62 160.1s-149.8 205.2-325.3 295.4z"/>
<circle class="st0" cx="435.6" cy="199.7" r="71.6"/>
<path class="st4" d="m469.2 237.9c-21 18.6-53.1 16.6-71.7-4.5-7.8-8.8-12.2-20-12.7-31.8-0.2-4.7 0.3-9.4 1.4-14 0.5-2 1.1-4.1 1.9-6 2.9-7.7 7.7-14.5 13.8-19.9 0.3-0.3 0.6-0.5 0.9-0.8 17.1-14.4 41.5-15.9 60.3-3.8 3.5 2.3 6.7 4.9 9.5 7.9l1 1.1c18.6 21.1 16.6 53.2-4.4 71.8v0z"/>
<path class="st0" d="m588.9 160.1c-83-35.2-96.8-109.6-96.8-109.6 50.6-23.5 104-40.4 158.8-50.5 0 0-9.1 68.8-62 160.1z"/>
<path class="st0" d="m263.6 455.5c-13.7 7.1-27.9 13.9-42.6 20.7-7 3.2-14.1 6.4-21.4 9.5-10.9 4.7-51.5-2.2-80.7-91.5 0 0 4.1-7.3 12.1-20 6.1-9.6 14.5-22.2 25.1-37 0 0 11 33.2 41.1 67.3 18.6 21.2 41.2 38.5 66.4 51z"/>
<path class="st3" d="m221 476.2c-7 3.2-14.1 6.4-21.4 9.5-10.9 4.7-51.5-2.2-80.7-91.5 0 0 4.1-7.3 12.1-20 0 0 39.2 82.7 90 102z"/>
<path class="st1" d="m463.2 157h-0.1l-60.1 3.9c-0.3 0.3-0.6 0.5-0.9 0.8-6.2 5.4-10.9 12.3-13.8 19.9l84.5-16.6-9.6-8z"/>
<path class="st1" d="m438.8 194.3-53.9 7.3c-0.2-4.7 0.3-9.4 1.4-14l52.8 1.4-0.3 5.3z"/>
<path class="st1" d="m131.7 408.7s12.5-22.5 37.2-57c54.3-75.7 167.5-209 336-286.7 45.6-21.1 93.3-36.9 142.5-47.3 2.7-11.3 3.5-17.7 3.5-17.7-54.8 10.1-108.2 27-158.7 50.5-168.6 77.7-281.8 211-336.1 286.7-24.7 34.4-37.2 57-37.2 57 11.5 35.3 26.6 57 40.5 70.3-10-13.1-19.7-31.2-27.7-55.8z"/>
</svg>
