<svg enable-background="new 0 0 231.8 231.8" version="1.1" viewBox="0 0 231.8 231.8" xml:space="preserve" xmlns="http://www.w3.org/2000/svg">
<style type="text/css">
	.st0{opacity:0.5;}
	.st1{fill:url(#a);}
	.st2{fill:#F5F5F5;}
	.st3{fill:#4E73DF;}
	.st4{fill:#72351C;}
	.st5{opacity:0.1;enable-background:new    ;}
	.st6{fill:#FDA57D;}
</style>
<g class="st0">
	
		<linearGradient id="a" x1="115.89" x2="115.89" y1="526.22" y2="758" gradientTransform="matrix(1 0 0 -1 0 758)" gradientUnits="userSpaceOnUse">
		<stop stop-color="#808080" stop-opacity=".25" offset="0"/>
		<stop stop-color="#808080" stop-opacity=".12" offset=".54"/>
		<stop stop-color="#808080" stop-opacity=".1" offset="1"/>
	</linearGradient>
	<circle class="st1" cx="115.9" cy="115.9" r="115.9"/>
</g>
<circle class="st2" cx="116.1" cy="115.1" r="113.4"/>
<path class="st3" d="m116.2 229c22.2 0 43.9-6.5 62.4-18.7-4.2-22.9-20.1-24.2-20.1-24.2h-87.7s-15 1.2-19.7 22.2c19 13.6 41.8 20.8 65.1 20.7z"/>
<circle class="st4" cx="115" cy="112.8" r="54.8"/>
<path class="st5" d="m97.3 158.4h35.1v28.1c0 9.7-7.8 17.6-17.5 17.6s-17.5-7.9-17.5-17.5l-0.1-28.2z"/>
<path class="st6" d="m100.7 157.1h28.4c1.9 0 3.3 1.5 3.3 3.4v24.7c0 9.7-7.9 17.5-17.5 17.5-9.7 0-17.5-7.9-17.5-17.5v-24.7c-0.1-1.9 1.4-3.4 3.3-3.4z"/>
<path class="st5" d="m97.4 171.6c11.3 4.2 23.8 4.3 35.1 0.1v-4.3h-35.1v4.2z"/>
<circle class="st6" cx="115" cy="123.7" r="50.3"/>
<path class="st5" d="m79.2 77.9s21.2 43 81 18l-13.9-21.8-24.7-8.9-42.4 12.7z"/>
<path class="st4" d="m79.2 77.3s21.2 43 81 18l-13.9-21.8-24.7-8.9-42.4 12.7z"/>
<path class="st4" d="m79 74.4c1.4-4.4 3.9-8.4 7.2-11.7 9.9-9.8 26.1-11.8 34.4-23 1.8 3.1 0.7 7.1-2.4 8.9l-0.6 0.3c8-0.1 17.2-0.8 21.7-7.3 2.3 5.3 1.3 11.4-2.5 15.7 7.1 0.3 14.6 5.1 15.1 12.2 0.3 4.7-2.6 9.1-6.5 11.9s-8.5 3.9-13.1 4.9c-13.5 2.9-62 15.3-53.3-11.9z"/>
<path class="st4" d="m165.3 124.1h-1.3l-26 23.1c-25-11.7-43.3 0-43.3 0l-27.2-22.1-2.7 0.3c0.8 27.8 23.9 49.6 51.7 48.9 27.1-0.8 48.8-23 48.8-50.2zm-50.3 32c-9.8 0-17.7-2-17.7-4.4s7.9-4.4 17.7-4.4 17.7 2 17.7 4.4-8 4.4-17.7 4.4z"/>
<ellipse class="st6" cx="64.7" cy="123.6" rx="4.7" ry="8.8"/>
<ellipse class="st6" cx="165.3" cy="123.6" rx="4.7" ry="8.8"/>
</svg>
