<!DOCTYPE svg  PUBLIC '-//W3C//DTD SVG 1.1//EN'  'http://www.w3.org/Graphics/SVG/1.1/DTD/svg11.dtd'>
<svg version="1.1" viewBox="0 0 533 461" xmlns="http://www.w3.org/2000/svg">
 <defs>
  <clipPath id="a">
   <path d="m-0 0.188h532.072v460.752h-532.072z"/>
  </clipPath>
 </defs>
 <g clip-path="url(#a)">
  <path d="m-0 302.115v158.885l201.137-22.607c-0.119-1.077-0.36-2.124-0.36-3.222 0-19.336 18.211-35.021 40.647-35.021 20.164 0 36.758 12.664 39.988 29.219l249.602-28.053 1.058-151.387-532.072 52.186" fill="#F4B655"/>
 </g>
 <path d="m304.787 0.188-158.516 157.041c13.262 5.764 22.458 17.481 22.458 31.143 0 19.326-18.209 34.992-40.668 34.992-13.842 0-26.008-5.973-33.366-15.058l-94.695 93.809 532.072-52.186c-18.349-234.324-227.285-249.741-227.285-249.741" fill="#FBCF59"/>
 <g fill="#EE9E45">
  <path d="m395.215 73.952c0 22.437-22.777 40.626-50.879 40.626-28.121 0-50.877-18.189-50.877-40.626 0-22.427 22.756-40.616 50.877-40.616 28.102 0 50.879 18.189 50.879 40.616"/>
  <path d="m283.268 163.002c0 15.707-15.955 28.441-35.62 28.441-19.666 0-35.601-12.734-35.601-28.441 0-15.706 15.935-28.43 35.601-28.43 19.665 0 35.62 12.724 35.62 28.43"/>
  <path d="m463.922 198.543c0 17.95-18.248 32.499-40.725 32.499-22.478 0-40.687-14.549-40.687-32.499 0-17.949 18.209-32.499 40.687-32.499 22.477 0 40.725 14.55 40.725 32.499"/>
 </g>
 <g fill="#C08751">
  <path d="m224.73 338.98c0 15.697-14.796 28.451-33.066 28.451-18.269 0-33.068-12.754-33.068-28.451 0-15.745 14.799-28.479 33.068-28.479 18.27 0 33.066 12.734 33.066 28.479"/>
  <path d="m345.594 358.835c0 13.313-9.674 24.082-21.619 24.082-11.928 0-21.602-10.769-21.602-24.082 0-13.302 9.674-24.092 21.602-24.092 11.945 0 21.619 10.79 21.619 24.092"/>
  <path d="m117.83 394.457c0 19.335-18.209 35.002-40.666 35.002s-40.646-15.667-40.646-35.002c0-19.336 18.189-35.003 40.646-35.003s40.666 15.667 40.666 35.003"/>
  <path d="m484.205 310.501c0 19.315-18.189 35.002-40.625 35.002-22.478 0-40.687-15.687-40.687-35.002 0-19.336 18.209-35.002 40.687-35.002 22.436 0 40.625 15.666 40.625 35.002"/>
 </g>
</svg>
